File Size:1.12gb

Video: ID : 0
Format : MPEG-4 Visual
Format profile : Simple@L3
Format settings, BVOP : No
Format settings, QPel : No
Format settings, GMC : No warppoints
Format settings, Matrix : Default (H.263)
Codec ID : XVID
Codec ID/Hint : XviD
Duration : 1h 35mn
Bit rate : 1 220 Kbps
Width : 720 pixels
Height : 400 pixels
Display aspect ratio : 16:9
Frame rate : 29.970 fps
Color space : YUV
Chroma subsampling : 4:2:0
Bit depth : 8 bits
Scan type : Progressive
Bits/(Pixel*Frame) : 0.141
Stream size : 830 MiB (73%)
Writing library : XviD 1.2.1 (UTC 2008-12-04)

Audio: ID : 1
Format : AC-3
Format/Info : Audio Coding 3
Mode extension : CM (complete main)
Codec ID : 2000
Duration : 1h 35mn
Bit rate mode : Constant
Bit rate : 448 Kbps
Channel(s) : 6 channels
Channel positions : Front: L C R, Side: L R, LFE
Sampling rate : 48.0 KHz
Bit depth : 16 bits
Stream size : 305 MiB (27%)
Alignment : Aligned on interleaves
Interleave, duration : 33 ms (1.00 video frame)
Interleave, preload duration : 512 ms

Duration:1:35

Release Date:2010

Language:English






================================== 
http://thepiratebay.org/user/hiest
==================================





Screens:
 
http://img132.imageshack.us/img132/2707/vlcsnap2010112300h01m06.png
 
http://img98.imageshack.us/img98/2057/vlcsnap2010112300h03m08.png
 
http://img822.imageshack.us/img822/8968/vlcsnap2010112223h59m34.png
 
http://img266.imageshack.us/img266/4513/vlcsnap2010112300h05m40.png
 
http://img196.imageshack.us/img196/7375/vlcsnap2010112223h59m07.png